<svg width="48" height="32" viewBox="0 0 48 32" fill="none" xmlns="http://www.w3.org/2000/svg">
<path d="M19.44 11.4C17.76 11.4 16.4 12 15.36 13.2C14.4 14.32 13.92 15.88 13.92 17.88V31.92H-4.58956e-06V16.68C-4.58956e-06 11.72 1.44 7.72002 4.32 4.68002C7.28 1.56002 11.12 2.09808e-05 15.84 2.09808e-05H21.6V11.4H19.44ZM45.24 11.4C43.56 11.4 42.2 12 41.16 13.2C40.2 14.32 39.72 15.88 39.72 17.88V31.92H25.92V16.68C25.92 11.72 27.36 7.72002 30.24 4.68002C33.2 1.56002 37.04 2.09808e-05 41.76 2.09808e-05H47.4V11.4H45.24Z" fill="#F7FBF8"/>
</svg>
